<svg viewBox="0 0 20 20" fill="none" xmlns="http://www.w3.org/2000/svg">
  <path d="M20 7.1a2 2 0 0 0-2-2h-4.4c0-.4-.3-.7-.6-.8V1.7A1.5 1.5 0 0 0 10.8.4L8.3 2c-.7.4-1 1-1.1 1.7v1.5c-.8 0-1.6.3-2.2.8L.7 9.8A2.3 2.3 0 0 0 .1 12l2 6.4c.3.8 1 1.3 1.8 1.3h9c1 0 2-.4 2.7-1l2.6-2.6c.3-.3.6-.7.6-1.2L20 7.5V7zM8.6 3.7c0-.2.1-.5.4-.7l2.5-1.4a.1.1 0 0 1 .1 0v2.6c-.3.2-.5.5-.6.9H9.5v1.3h8.7L14.6 10c-.4.3-1 .5-1.4.5H9.6c-.1-.5-.5-1-1-1.3V3.7zM5.9 7a2 2 0 0 1 1.3-.5v2.7c-.6.2-1 .7-1 1.3H2L6 7zm-4 6.4l-.5-1.6v-.2h2.5l.2 1.8H2zm.3.9h2l.2 1.6H2.7l-.5-1.6zm1.7 4.2a.5.5 0 0 1-.5-.3L3 16.7h1.5l.3 1.7h-.9zm3.5 0H5.6l-.2-1.7h2v1.7zm0-2.6H5.3L5 14.2h2.3v1.6zm0-2.5H5l-.3-1.8h2.7v1.8zm.4-2.5a.5.5 0 1 1 0-1 .5.5 0 0 1 0 1zm2.6 7.6H8.2v-1.7h2.2v1.7zm0-2.6H8.2v-1.6h2.3v1.6zm.1-2.5H8.2v-1.8h2.3v1.8zm2.6 5.1h-1.9v-1.7h2v1.7zm.2-2.6h-2v-1.6h2v1.6zm.1-2.5h-2v-1.8h2.1v1.8zm2.2 3.5l-1 1-.4.3v-1.7l1.5-1.1-.1 1.5zm.2-2.7l-1.5 1.2.1-1.6 1.5-1.2-.1 1.6zm.2-2.7l-1.5 1.1v-1.4l.8-.5.8-.7-.1 1.5zm1.5 3.4c0 .2-.1.3-.3.5l-.7.6.1-1.4 1-.8-.1 1zm.3-2.3l-1.1.9.1-1.6 1.3-1-.3 1.7zm.5-3l-1.4 1.1L17 9l1.6-1.4-.3 2z" fill="currentColor"/>
</svg>
