<svg width="26" height="26" viewBox="0 0 26 26" fill="none" xmlns="http://www.w3.org/2000/svg">
  <path d="M14 3.3a1 1 0 0 1 .2 2.1H5.4v15.2h15.2v-8.7a1 1 0 0 1 2.1-.1V20.6a2.2 2.2 0 0 1-2 2.1H5.4a2.2 2.2 0 0 1-2.1-2V5.4a2.2 2.2 0 0 1 2-2.1H14zm6.8.3a1 1 0 0 1 1.7 1.5h-.1L11.7 16a1 1 0 0 1-1.7-1.5h.1L20.8 3.5z" fill="url(#paint0_linear_0_814)"/>
  <defs>
    <linearGradient id="paint0_linear_0_814" x1="24.2" y1="8.1" x2="1.3" y2="10.7" gradientUnits="userSpaceOnUse">
      <stop stop-color="#55A8A1"/>
      <stop offset=".7" stop-color="#3F7C77"/>
      <stop offset="1"/>
    </linearGradient>
  </defs>
</svg>
