<svg width="24" height="24" viewBox="0 0 24 24" fill="none" xmlns="http://www.w3.org/2000/svg">
  <path d="M14.3 12.3l-.2-.4a.5.5 0 0 0 0 1l.2-.6zm-4.6 0l.1.5a.5.5 0 0 0 .1-.9l-.2.4zM16 8.5a4 4 0 0 1-2 3.4l.6.9A5 5 0 0 0 17 8.5h-1zm-4-4a4 4 0 0 1 4 4h1a5 5 0 0 0-5-5v1zm-4 4a4 4 0 0 1 4-4v-1a5 5 0 0 0-5 5h1zm2 3.4a4 4 0 0 1-2-3.4H7a5 5 0 0 0 2.4 4.3l.5-.9zm-.5 0a8.5 8.5 0 0 0-6 7l1 .2c.4-3 2.5-5.4 5.3-6.3l-.3-1zm-6 7c0 1 .7 1.6 1.5 1.6v-1c-.3 0-.5-.2-.4-.4l-1-.2zM5 20.5h14v-1H5v1zm14 0c.8 0 1.5-.7 1.4-1.6l-1 .2c0 .2-.1.4-.4.4v1zm1.4-1.6a8.5 8.5 0 0 0-6-7l-.2 1c2.8.8 4.9 3.2 5.2 6.2l1-.2z" fill="#000"/>
</svg>
